<?xml version="1.0" encoding="UTF-8"?>
<svg id="_レイヤー_1" data-name="レイヤー 1" xmlns="http://www.w3.org/2000/svg" viewBox="0 0 250 45">
  <defs>
    <style>
      .cls-1 {
        fill: #e10012;
      }

      .cls-1, .cls-2 {
        stroke-width: 0px;
      }

      .cls-2 {
        fill: #fff;
      }
    </style>
  </defs>
  <g>
    <path class="cls-2" d="M49.56,3.2c-1.91.24-2.71.57-2.71,2.55v28.6c0,1.77-.49,4.44-1.94,5.79-1.74,1.62-4.76,2.19-6.84,2.19-1.53,0-4.79-.18-7.05-1.89-1.49-1.14-2.4-2.19-2.4-5.43V5.96c0-2.52-.9-2.58-2.85-2.76v-.75h11.74v.75c-2.29.09-3.37.12-3.37,2.76v29.05c0,1.71,0,5.85,5,5.85,6.11,0,6.18-4.59,6.18-6.51V6.17c0-1.83-.42-2.85-3.4-2.97v-.75h7.64v.75Z"/>
    <path class="cls-2" d="M76.21,31.68c0,6.54-5.6,10.66-12.3,10.66s-12.3-4.11-12.3-10.66V12.66c0-6.54,5.59-10.66,12.3-10.66s12.3,4.11,12.3,10.66v19.02ZM70.05,12.66c0-4.38-1.29-9.67-6.15-9.67s-6.15,5.28-6.15,9.67v19.02c0,4.38,1.29,9.67,6.15,9.67s6.15-5.28,6.15-9.67V12.66Z"/>
    <path class="cls-2" d="M2.88,5.21c0-1.83-1.53-1.89-2.88-2.01v-.75h10.6c9.73,0,12.89,5.22,12.89,9.85v20.19c0,4.62-3.16,9.85-12.89,9.85H0v-.75c1.35-.12,2.88-.18,2.88-2.01V5.21ZM8.51,39.9c-.04.66-.07,1.41,2.15,1.41,5.98,0,6.78-6.39,6.78-9.13V12.6c0-2.73-.8-9.13-6.78-9.13-2.22,0-2.19.75-2.15,1.41v35.02Z"/>
  </g>
  <g>
    <polygon class="cls-2" points="88.01 12.79 89.5 12.79 89.5 26.65 88.01 26.65 88.01 28.54 94.45 28.54 94.45 26.65 93.13 26.65 93.13 12.79 94.45 12.79 94.45 10.9 88.01 10.9 88.01 12.79"/>
    <path class="cls-2" d="M109.11,21.43c0-1.59-.42-2.87-1.24-3.8-.88-1-2.13-1.51-3.73-1.51-.86,0-1.65.21-2.38.62v-.35h-4.57v1.83h1.18v8.51h-1.18v1.83h5.75v-1.83h-1.18v-7.66c.65-.74,1.31-1.1,1.99-1.1.54,0,1.96,0,1.96,3.52v5.24h-1.17v1.83h5.74v-1.83h-1.18v-5.29Z"/>
    <path class="cls-2" d="M117.58,12.82h-1.34l-.13.4c-.28.86-.68,1.59-1.19,2.18-.59.67-1.22.99-1.92.99h-.57v1.83h1.76v7.51c0,1.25.66,2.12,1.91,2.51.54.17,1.48.27,2.89.31l.59.02v-1.8l-.54-.04c-.97-.07-1.2-.22-1.22-.24-.04-.03-.23-.22-.23-1.04v-7.23h1.99v-1.83h-1.99v-3.57Z"/>
    <path class="cls-2" d="M133.46,22.59l-.04-.61c-.1-1.73-.61-3.12-1.49-4.15-.98-1.15-2.36-1.73-4.1-1.73s-3.2.6-4.18,1.78c-.9,1.07-1.35,2.52-1.35,4.3,0,1.92.44,3.48,1.31,4.63,1.01,1.34,2.49,2.01,4.41,2.01,1.12,0,2.15-.24,3.06-.72,1.05-.55,1.78-1.35,2.19-2.36l.18-.45-1.58-.97-.26.6c-.26.6-.67,1.06-1.25,1.41-.59.36-1.21.53-1.89.53-1.2,0-2.79-.42-2.79-4.03,0-.04,0-.13,0-.25h7.79ZM127.82,17.98c.83,0,1.92.3,2.15,2.79h-4.24c.05-.71.21-1.31.46-1.78.36-.69.88-1.01,1.64-1.01Z"/>
    <path class="cls-2" d="M142.82,16.18c-.76,0-1.45.15-2.06.44v-.24h-4.54v1.83h1.18v8.51h-1.18v1.83h5.75v-1.83h-1.18l-.03-7.8c.49-.59,1.08-.88,1.8-.88.45,0,1.1.14,1.59,1.4l.34.88,2.26-2.56-.44-.38c-.91-.79-2.09-1.19-3.5-1.19Z"/>
    <path class="cls-2" d="M161.01,21.43c0-1.59-.42-2.87-1.24-3.8-.88-1-2.13-1.51-3.73-1.51-.86,0-1.65.21-2.38.62v-.35h-4.57v1.83h1.18v8.51h-1.18v1.83h5.75v-1.83h-1.18v-7.66c.65-.74,1.31-1.1,1.99-1.1.54,0,1.96,0,1.96,3.52v5.24h-1.16v1.83h5.74v-1.83h-1.18v-5.29Z"/>
    <path class="cls-2" d="M175.7,25.73v-4.89c0-1.84-.49-3.14-1.46-3.86-.8-.59-2.09-.88-3.96-.88-.68,0-1.86.2-3.59.61l-.44.11v3.48h1.77l.06-.51c.18-1.66,1.02-1.87,1.74-1.87,1.73,0,2.5.73,2.5,2.38,0,.16-.01.28-.03.36-.31.26-.95.6-2.26.86-1.6.32-2.58.6-3.07.87-1.09.59-1.66,1.64-1.66,3.01,0,1.11.36,1.99,1.08,2.59.65.56,1.54.84,2.63.84.88,0,1.72-.22,2.51-.66.35-.2.68-.42.96-.68.08.32.19.58.34.8l.17.26h4.11v-1.83h-1.34c-.02-.18-.04-.48-.04-.99ZM172.32,22.6v2.03c-.22.54-.6,1.07-1.14,1.56-.59.54-1.13.82-1.62.82-.21,0-.45-.06-.65-.47-.16-.33-.24-.74-.24-1.22,0-.72.2-1.24.61-1.58.2-.17.66-.43,1.67-.72.54-.15.99-.29,1.36-.42Z"/>
    <path class="cls-2" d="M184.77,12.82h-1.34l-.13.4c-.28.86-.68,1.59-1.19,2.18-.59.67-1.22.99-1.92.99h-.57v1.83h1.76v7.51c0,1.25.66,2.12,1.91,2.51.54.17,1.48.27,2.89.31l.59.02v-1.8l-.54-.04c-.97-.07-1.2-.22-1.22-.24-.04-.03-.23-.22-.23-1.04v-7.23h1.99v-1.83h-1.99v-3.57Z"/>
    <path class="cls-2" d="M191.77,14.25c.17.17.37.31.59.4.23.1.47.15.73.15s.51-.05.73-.15c.22-.1.41-.23.59-.4.17-.17.31-.37.4-.59.1-.23.15-.47.15-.73s-.05-.51-.15-.73c-.1-.22-.23-.41-.4-.59-.17-.17-.37-.31-.59-.4-.45-.2-1.01-.2-1.47,0-.22.1-.42.23-.59.4-.17.17-.31.37-.4.59-.1.23-.15.47-.15.73s.05.51.15.73c.1.22.23.42.4.59Z"/>
    <polygon class="cls-2" points="194.79 16.39 190.2 16.39 190.2 18.21 191.4 18.21 191.4 26.72 190.2 26.72 190.2 28.54 195.94 28.54 195.94 26.72 194.79 26.72 194.79 16.39"/>
    <path class="cls-2" d="M205.14,16.13c-3.96,0-6.05,2.19-6.05,6.34,0,5.23,2.89,6.33,5.32,6.33,2.19,0,3.79-.51,4.76-1.5.97-.99,1.46-2.61,1.46-4.83,0-5.24-2.98-6.34-5.48-6.34ZM202.48,22.52c0-1.24.17-2.27.49-3.07.54-1.34,1.34-1.49,1.89-1.49s1.3.16,1.85,1.53c.34.83.51,1.86.51,3.06s-.17,2.18-.52,2.98c-.56,1.3-1.33,1.45-1.86,1.45s-1.32-.15-1.86-1.46c-.34-.8-.51-1.8-.51-2.99Z"/>
    <path class="cls-2" d="M225.65,21.43c0-1.59-.42-2.87-1.24-3.8-.88-1-2.13-1.51-3.73-1.51-.86,0-1.65.21-2.38.62v-.35h-4.57v1.83h1.18v8.51h-1.18v1.83h5.75v-1.83h-1.17v-7.66c.65-.74,1.31-1.1,1.99-1.1.54,0,1.96,0,1.96,3.52v5.24h-1.17v1.83h5.74v-1.83h-1.18v-5.29Z"/>
    <path class="cls-2" d="M240.34,25.73v-4.89c0-1.84-.49-3.14-1.46-3.86-.8-.59-2.1-.88-3.96-.88-.68,0-1.86.2-3.59.61l-.44.11v3.48h1.77l.06-.51c.18-1.66,1.02-1.87,1.73-1.87,1.73,0,2.5.73,2.5,2.38,0,.16-.01.28-.03.36-.31.26-.95.6-2.26.86-1.6.32-2.58.6-3.07.87-1.09.59-1.67,1.64-1.67,3.01,0,1.11.37,1.99,1.08,2.59.65.56,1.54.84,2.63.84.88,0,1.72-.22,2.51-.66.35-.2.68-.42.96-.68.08.32.19.58.34.8l.17.26h4.11v-1.83h-1.34c-.02-.18-.04-.48-.04-.99ZM236.95,22.6v2.03c-.22.54-.6,1.07-1.14,1.56-.59.54-1.13.82-1.62.82-.21,0-.45-.06-.65-.47-.16-.33-.25-.74-.25-1.22,0-.72.2-1.24.61-1.58.21-.17.66-.43,1.67-.72.54-.15.99-.29,1.36-.42Z"/>
    <polygon class="cls-2" points="248.82 26.72 248.82 10.9 244.25 10.9 244.25 12.72 245.43 12.72 245.43 26.72 244.25 26.72 244.25 28.54 250 28.54 250 26.72 248.82 26.72"/>
  </g>
  <path class="cls-1" d="M206.45,37.9c0,2.16-1.75,3.91-3.91,3.91s-3.91-1.74-3.91-3.91,1.76-3.91,3.91-3.91,3.91,1.75,3.91,3.91Z"/>
  <g>
    <path class="cls-2" d="M211,34h-1.08c-.07,0-.14.06-.14.14v3.9s-.02.05-.06.05c-.02,0-.04-.02-.06-.04l-1.66-3.92c-.03-.08-.11-.13-.2-.13h-1.03c-.11,0-.15.09-.15.18v1.42c.39.68.62,1.47.62,2.31s-.23,1.62-.62,2.31v1.47c0,.07.06.14.14.14h1.08c.07,0,.14-.07.14-.14v-3.89s.03-.05.06-.05c.03,0,.05,0,.06.03l1.66,3.93c.04.08.11.12.2.12h.95c.12,0,.23-.04.23-.16v-7.52c0-.07-.05-.14-.14-.14Z"/>
    <path class="cls-2" d="M183.97,41.81h-.95c-.09,0-.16-.04-.19-.12l-1.67-3.93s-.04-.03-.06-.03c-.03,0-.05.02-.05.05v3.89c0,.07-.07.14-.14.14h-1.08c-.08,0-.14-.07-.14-.14v-7.5c0-.09.04-.18.16-.18h1.03c.09,0,.18.05.2.13l1.67,3.92s.04.04.06.04c.04,0,.07-.03.07-.05v-3.9c0-.07.07-.14.14-.14h1.08c.09,0,.13.06.13.14v7.52c0,.12-.11.16-.23.16Z"/>
    <path class="cls-2" d="M186.62,41.81h-1.08c-.08,0-.14-.05-.14-.13v-7.55c0-.07.06-.13.14-.13h1.08c.09,0,.14.05.14.13v7.55c0,.07-.05.13-.14.13Z"/>
    <path class="cls-2" d="M195.63,38.96h-.86c-.07,0-.15.06-.15.13v2.6c0,.07-.06.13-.13.13h-1.08c-.09,0-.14-.05-.14-.13v-7.56c0-.07.05-.13.14-.13h2.22c1.2,0,2.17.88,2.17,1.95v1.06c0,1.07-.97,1.95-2.17,1.95ZM196.44,35.95c0-.4-.36-.73-.81-.73h-.86c-.07,0-.15.07-.15.14v2.24c0,.07.07.14.15.14h.86c.45,0,.81-.33.81-.73v-1.06Z"/>
    <path class="cls-2" d="M190.21,38.96h-.86c-.07,0-.14.06-.14.13v2.6c0,.07-.06.13-.14.13h-1.08c-.08,0-.14-.05-.14-.13v-7.56c0-.07.06-.13.14-.13h2.22c1.2,0,2.18.88,2.18,1.95v1.06c0,1.07-.98,1.95-2.18,1.95ZM191.03,35.95c0-.4-.37-.73-.81-.73h-.86c-.07,0-.14.07-.14.14v2.24c0,.07.07.14.14.14h.86c.44,0,.81-.33.81-.73v-1.06Z"/>
    <path class="cls-2" d="M220.52,42.25c-.05.05-.14.05-.2,0-.14-.13-.39-.35-.54-.49-.06-.05-.15-.07-.24-.05-.27.11-.55.17-.83.17h-.19c-1.2,0-2.17-.88-2.17-1.95v-4.04c0-1.08.97-1.96,2.17-1.96h.19c1.19,0,2.17.88,2.17,1.96v4.04c0,.25-.07.51-.19.74-.04.08-.02.16.04.22.16.13.4.36.54.49.06.06.06.14,0,.18l-.76.69ZM219.52,35.89c0-.4-.36-.73-.81-.73h-.19c-.45,0-.81.33-.81.73v4.04c0,.4.36.73.81.73h.19c.44,0,.81-.33.81-.73v-4.04Z"/>
    <path class="cls-2" d="M224.47,41.91h-.19c-1.2,0-2.18-.89-2.18-1.96v-5.81c0-.07.06-.13.14-.13h1.08c.08,0,.14.05.14.13v5.81c0,.4.36.73.81.73h.19c.45,0,.81-.33.81-.73v-5.81c0-.07.06-.13.14-.13h1.08c.08,0,.14.05.14.13v5.81c0,1.08-.97,1.96-2.17,1.96Z"/>
    <path class="cls-2" d="M231.73,41.81h-1.11c-.08,0-.15-.05-.18-.13l-.2-.97c-.01-.08-.1-.12-.17-.12h-1.01c-.08,0-.16.05-.18.12l-.2.97c-.02.07-.09.13-.17.13h-1.1c-.06,0-.11-.04-.11-.11v-.02l1.61-7.55c.01-.07.09-.14.16-.14h1c.08,0,.15.05.16.13l1.61,7.56v.02c0,.06-.06.11-.11.11ZM229.63,37.79s-.02-.04-.06-.04c-.02,0-.04.02-.06.04-.03.18-.3,1.36-.3,1.47,0,.05.06.1.11.1h.49c.08,0,.12-.05.12-.1,0-.11-.27-1.29-.31-1.47Z"/>
    <path class="cls-2" d="M237.02,41.81h-4.25c-.08,0-.14-.05-.14-.13v-7.55c0-.07.06-.13.14-.13h1.08c.07,0,.14.05.14.13v6.33c0,.06.07.13.14.13h2.89c.08,0,.14.06.14.12v.97c0,.07-.06.13-.14.13Z"/>
    <path class="cls-2" d="M239.27,41.81h-1.08c-.08,0-.14-.05-.14-.13v-7.55c0-.07.06-.13.14-.13h1.08c.08,0,.14.05.14.13v7.55c0,.07-.06.13-.14.13Z"/>
    <path class="cls-2" d="M244.65,35.23h-1.31c-.08,0-.14.06-.14.12v6.33c0,.07-.07.13-.14.13h-1.08c-.08,0-.14-.05-.14-.13v-6.33c0-.06-.07-.12-.15-.12h-1.29c-.08,0-.14-.07-.14-.13v-.97c0-.07.06-.13.14-.13h4.25c.08,0,.14.05.14.13v.97c0,.06-.06.13-.14.13Z"/>
    <path class="cls-2" d="M248.39,37.97s-.02.07-.02.11v3.61c0,.07-.07.13-.14.13h-1.08c-.08,0-.14-.05-.14-.13v-3.61s0-.07-.02-.12c-.13-.29-1.61-3.82-1.61-3.87,0-.05.05-.08.1-.08h1.16c.09,0,.18.04.2.12l.79,1.9s.03.03.06.03.05-.01.05-.03l.8-1.9c.02-.08.1-.12.18-.12h1.18c.06,0,.11.03.11.08,0,.04-1.49,3.58-1.61,3.88Z"/>
  </g>
  <rect class="cls-2" x="88.01" y="33.86" width="87.45" height=".73"/>
</svg>